<svg width="30" height="31" viewBox="0 0 30 31" fill="none" xmlns="http://www.w3.org/2000/svg">
<g clip-path="url(#clip0)">
<path d="M15 0.812256C6.72902 0.812256 0 7.54128 0 15.8123C0 24.0832 6.72902 30.8123 15 30.8123C23.271 30.8123 30 24.0832 30 15.8123C30 7.54128 23.271 0.812256 15 0.812256ZM15 28.4376C8.03824 28.4376 2.37469 22.7736 2.37469 15.8123C2.37469 8.85091 8.03824 3.18694 15 3.18694C21.9613 3.18694 27.6253 8.85132 27.6253 15.8127C27.6253 22.774 21.9613 28.4376 15 28.4376Z" fill="#7653FC"/>
<path d="M15 18.4739C10.7814 18.4739 6.83431 20.5893 3.88652 24.4299L5.77043 25.8753C8.25867 22.6339 11.5365 20.8486 15 20.8486C18.4635 20.8486 21.7413 22.6339 24.2291 25.8753L26.1131 24.4299C23.1653 20.5893 19.2186 18.4739 15 18.4739Z" fill="#7653FC"/>
<path d="M15 6.19482C11.5955 6.19482 8.82586 8.98231 8.82586 12.4085C8.82586 15.8347 11.5955 18.6223 15 18.6223C18.4045 18.6223 21.1741 15.8348 21.1741 12.4086C21.1741 8.98236 18.4045 6.19482 15 6.19482ZM15 16.2476C12.9052 16.2476 11.2005 14.5256 11.2005 12.4085C11.2005 10.2915 12.9052 8.56945 15 8.56945C17.0948 8.56945 18.7995 10.2919 18.7995 12.4085C18.7995 14.5252 17.0948 16.2476 15 16.2476Z" fill="#7653FC"/>
</g>
<defs>
<clipPath id="clip0">
<rect width="30" height="30" fill="white" transform="translate(0 0.812256)"/>
</clipPath>
</defs>
</svg>
